<svg width="36" height="32" viewBox="0 0 36 32" fill="none" xmlns="http://www.w3.org/2000/svg">
<path d="M36 3.76471C34.6749 4.42353 33.2467 4.85647 31.7667 5.06353C33.2811 4.06588 34.4512 2.48471 35.0019 0.583529C33.5736 1.52471 31.9904 2.18353 30.3212 2.56C28.9618 0.941177 27.0516 0 24.8834 0C20.8394 0 17.5354 3.61412 17.5354 8.07529C17.5354 8.71529 17.6042 9.33647 17.7247 9.92C11.5985 9.58118 6.1434 6.36235 2.51243 1.48706C1.87572 2.67294 1.51434 4.06588 1.51434 5.53412C1.51434 8.33882 2.80497 10.8235 4.80115 12.2353C3.57935 12.2353 2.44359 11.8588 1.44551 11.2941V11.3506C1.44551 15.2659 3.99235 18.5412 7.3652 19.2753C6.28251 19.6008 5.14538 19.6459 4.04398 19.4071C4.51137 21.0117 5.42674 22.4158 6.66141 23.422C7.89607 24.4281 9.38796 24.9858 10.9273 25.0165C8.31798 27.2763 5.08338 28.4977 1.75526 28.48C1.17017 28.48 0.585086 28.4424 0 28.3671C3.2696 30.6635 7.1587 32 11.3231 32C24.8834 32 32.3346 19.6894 32.3346 9.01647C32.3346 8.65882 32.3346 8.32 32.3174 7.96235C33.7629 6.83294 35.0019 5.40235 36 3.76471Z" fill="white"/>
</svg>
