<svg width="32" height="32" viewBox="0 0 32 32" fill="none" xmlns="http://www.w3.org/2000/svg">
<g clip-path="url(#clip0_68_199)">
<path d="M13.2 0H11.4L10.2 4.6L9 0H7C7.4 1.2 7.8 2.2 8.2 3.4C8.8 5 9.2 6.4 9.2 7.2V12H11V7.2L13.2 0ZM18 9V6C18 5 17.8 4.4 17.4 3.8C17 3.2 16.4 3 15.6 3C14.8 3 14.2 3.4 13.8 4C13.4 4.4 13.2 5 13.2 6V9.2C13.2 10.2 13.4 10.8 13.8 11.2C14.2 11.8 14.8 12 15.6 12C16.4 12 17 11.6 17.4 11C17.8 10.8 18 10 18 9ZM16.4 9.4C16.4 10.2 16.2 10.6 15.6 10.6C15 10.6 14.8 10.2 14.8 9.4V5.6C14.8 4.8 15 4.4 15.6 4.4C16.2 4.4 16.4 4.8 16.4 5.6V9.4ZM24 12V3H22.4V9.8C22 10.4 21.8 10.6 21.4 10.6C21.2 10.6 21 10.4 21 10.2V3H19.4V10C19.4 10.6 19.4 11 19.6 11.4C19.6 11.8 20 12 20.6 12C21.2 12 21.8 11.6 22.4 11V12H24ZM24.8 21C24.2 21 24 21.4 24 22.2V23H25.6V22.2C25.6 21.4 25.4 21 24.8 21ZM19 21C18.8 21 18.4 21.2 18.2 21.4V26.8C18.4 27 18.8 27.2 19 27.2C19.4 27.2 19.6 26.8 19.6 26V22.2C19.6 21.4 19.4 21 19 21Z" fill="white"/>
<path d="M28.8 16.6001C28.4 15.2001 27.2001 14.0001 26 14.0001C22.8 13.6001 19.4 13.6001 16 13.6001C12.6 13.6001 9.40005 13.6001 6.00005 14.0001C4.80005 14.0001 3.60005 15.2001 3.20005 16.6001C2.80005 18.6001 2.80005 20.8001 2.80005 22.8001C2.80005 24.8001 2.80005 27.0001 3.20005 29.0001C3.60005 30.4001 4.60005 31.4001 6.00005 31.6001C9.40005 32.0001 12.6 32.0001 16 32.0001C19.4 32.0001 22.6 32.0001 26 31.6001C27.4 31.4001 28.6 30.4001 28.8 29.0001C29.2 27.0001 29.2001 24.8001 29.2001 22.8001C29.2001 20.8001 29.2 18.6001 28.8 16.6001ZM10.4 18.4001H8.40005V28.6001H6.60005V18.4001H4.80005V16.6001H10.4V18.4001ZM15.2 28.6001H13.6V27.6001C13 28.4001 12.4 28.6001 11.8 28.6001C11.2 28.6001 11 28.4001 10.8 28.0001C10.8 27.8001 10.6 27.4001 10.6 26.6001V19.6001H12.2V26.6001C12.2 26.8001 12.4 27.0001 12.6 27.0001C13 27.0001 13.2 26.8001 13.6 26.2001V19.6001H15.2V28.6001ZM21.2001 25.8001C21.2001 26.6001 21.2001 27.2001 21 27.6001C20.8 28.2001 20.4 28.6001 19.8 28.6001C19.2 28.6001 18.6 28.2001 18.2 27.6001V28.4001H16.6V16.6001H18.2V20.4001C18.8 19.8001 19.2 19.4001 19.8 19.4001C20.4 19.4001 20.8 19.8001 21 20.4001C21.2001 20.8001 21.2001 21.4001 21.2001 22.2001V25.8001ZM27.2001 24.4001H24V26.0001C24 26.8001 24.2 27.2001 24.8 27.2001C25.2 27.2001 25.4 27.0001 25.6 26.6001V25.6001H27.2001V26.8001C27.2001 27.2001 27 27.4001 26.8 27.8001C26.4 28.4001 25.8 28.8001 24.8 28.8001C24 28.8001 23.4 28.4001 22.8 27.8001C22.4 27.4001 22.2001 26.6001 22.2001 25.8001V22.8001C22.2001 21.8001 22.4 21.2001 22.6 20.8001C23 20.2001 23.6 19.8001 24.6 19.8001C25.4 19.8001 26 20.2001 26.4 20.8001C26.8 21.2001 26.8 22.0001 26.8 22.8001V24.4001H27.2001Z" fill="white"/>
</g>
<defs>
<clipPath id="clip0_68_199">
<rect width="32" height="32" fill="white"/>
</clipPath>
</defs>
</svg>
